<?xml version="1.0" standalone="no"?><!DOCTYPE svg PUBLIC "-//W3C//DTD SVG 1.1//EN" "http://www.w3.org/Graphics/SVG/1.1/DTD/svg11.dtd"><svg class="icon" width="200px" height="200.00px" viewBox="0 0 1024 1024" version="1.1" xmlns="http://www.w3.org/2000/svg"><path d="M879.752533 213.841067c-20.023467-118.0032-107.029333-194.730667-180.219733-173.192534L236.689067 167.2704h-0.0128c-35.643733 9.8048-64.840533 34.286933-83.8528 67.050667-18.986667 32.900267-25.706667 70.08-19.451734 106.8928a1436.352 1436.352 0 0 1-19.072 576.3584c-4.279467 17.924267 2.0352 36.765867 16.337067 48.174933 4.744533 3.758933 10.069333 6.442667 15.6544 7.965867 11.2768 3.093333 23.658667 1.4848 34.3296-5.243734 74.615467-47.022933 147.131733-102.276267 216.106667-165.585066a3515032.712533 3515032.712533 0 0 0 286.365866 37.533866l71.8464 9.416534c75.447467 11.349333 151.086933-75.831467 154.9056-195.0848a2193.1264 2193.1264 0 0 0-30.0928-440.9088zM387.959467 568.136533c-41.890133 0-75.848533-33.954133-75.848534-75.844266s33.9584-75.848533 75.848534-75.848534 75.848533 33.9584 75.848533 75.848534-33.9584 75.844267-75.848533 75.844266z m264.571733-14.519466c-49.911467 0-90.376533-40.456533-90.376533-90.372267 0-49.911467 40.4608-90.376533 90.376533-90.376533 49.915733 0 90.372267 40.4608 90.372267 90.376533-0.004267 49.911467-40.456533 90.372267-90.372267 90.372267z" fill="#9CB364" /></svg>