<?xml version="1.0" standalone="no"?><!DOCTYPE svg PUBLIC "-//W3C//DTD SVG 1.1//EN" "http://www.w3.org/Graphics/SVG/1.1/DTD/svg11.dtd"><svg class="icon" width="200px" height="200.00px" viewBox="0 0 1024 1024" version="1.1" xmlns="http://www.w3.org/2000/svg"><path d="M928.681944 632.73956h-277.782369c-28.957862 0-52.437096-23.483429-52.437096-52.437096 0-28.957862 23.479234-52.437096 52.437096-52.437096h277.782369c28.957862 0 52.437096 23.479234 52.437096 52.437096s-23.479234 52.437096-52.437096 52.437096zM928.681944 795.789563h-277.782369c-28.957862 0-52.437096-23.483429-52.437096-52.437096 0-28.957862 23.479234-52.437096 52.437096-52.437096h277.782369c28.957862 0 52.437096 23.479234 52.437096 52.437096s-23.479234 52.437096-52.437096 52.437096zM807.745221 957.086071h-156.845646c-28.957862 0-52.437096-23.479234-52.437096-52.437096 0-28.953667 23.479234-52.437096 52.437096-52.437096H807.745221c28.953667 0 52.437096 23.483429 52.437096 52.437096 0 28.957862-23.483429 52.437096-52.437096 52.437096zM358.88368 539.296655a274.501905 274.501905 0 0 0-78.538185-11.427092c-139.428141 0-252.864262 103.284299-252.864262 230.236606s113.436121 230.236606 252.864262 230.236606c139.432336 0 252.868457-103.284299 252.868457-230.236606a213.062408 213.062408 0 0 0-1.237516-22.719945c0.788654-3.616062 1.229126-7.366363 1.229126-11.221539V254.185676l173.289919-94.533596v38.203571l-108.028807 56.929906v118.553981l184.914175-97.457489a52.428706 52.428706 0 0 0 27.988824-46.387952V71.314451a52.437096 52.437096 0 0 0-77.543977-46.035576L455.657389 177.027636a52.428706 52.428706 0 0 0-27.326019 46.03138v152.034019a58.268101 58.268101 0 0 0 0 2.097484v346.974166l0.004195 0.0839v33.857584c0 69.124677-66.389558 125.362414-147.99007 125.362414-81.600511 0-147.99007-56.237737-147.99007-125.362414s66.389558-125.362414 147.99007-125.362414" /></svg>