<?xml version="1.0" standalone="no"?><!DOCTYPE svg PUBLIC "-//W3C//DTD SVG 1.1//EN" "http://www.w3.org/Graphics/SVG/1.1/DTD/svg11.dtd"><svg class="icon" width="200px" height="200.00px" viewBox="0 0 1024 1024" version="1.1" xmlns="http://www.w3.org/2000/svg"><path d="M916.30868 171.023696a270.210432 270.210432 0 0 1 0.031609 382.115662L760.573729 708.905918l-382.141852-382.141852L534.198437 170.997506a270.210432 270.210432 0 0 1 382.110243 0.02619z" fill="#FFE33F" /><path d="M760.571922 716.166017L371.1781 326.763163l159.371774-159.362743a275.340095 275.340095 0 0 1 389.384792 389.384792zM385.673011 326.763163l374.898911 374.898912 152.119804-152.119803c103.360909-103.360909 103.360909-271.538003 0-374.898912s-271.538003-103.360909-374.898912 0z" fill="#231815" /><path d="M895.044961 549.144903L610.240277 264.340218a5.608311 5.608311 0 0 0-7.938335 0l-9.726492 9.726492-102.746794-102.737763c-105.528372-105.528372-276.622511-105.528372-382.141852 0C2.158432 276.848288 2.158432 447.942427 107.686804 553.470799L263.428078 709.212072l253.268093 219.293105 105.799305-106.819819a64.229164 64.229164 0 0 0 90.843808 0 64.229164 64.229164 0 0 0 0-90.843808 64.238195 64.238195 0 0 0 90.852838 0 64.238195 64.238195 0 0 0 0-90.852839 64.238195 64.238195 0 0 0 90.852839 0 64.247226 64.247226 0 0 0 0-90.843808z" fill="#E85298" /><path d="M516.967104 935.513309L259.806608 712.824511 104.065334 557.083238A275.331064 275.331064 0 1 1 493.450126 167.707477l99.125324 99.125324 6.114053-6.114053a10.747006 10.747006 0 0 1 15.172244 0l284.795653 284.804685A69.358827 69.358827 0 0 1 822.732965 658.502461a69.440107 69.440107 0 0 1-90.870901 90.879932 69.358827 69.358827 0 0 1-109.21306 79.473656zM266.914081 705.455136l249.520188 216.041909 106.043144-107.063658 3.612439 3.612439a59.117563 59.117563 0 0 0 83.609899-83.609899l7.224878-7.224878a59.117563 59.117563 0 0 0 83.609899-83.609899l7.224878-7.224878A59.117563 59.117563 0 0 0 891.369305 552.766373L606.618807 267.961688a0.478648 0.478648 0 0 0-0.695395 0l-13.347962 13.347962-106.368264-106.368264c-103.360909-103.351878-271.538003-103.351878-374.898912 0a265.089799 265.089799 0 0 0 0 374.907943z" fill="#231815" /><path d="M121.505736 616.070266m45.787263-45.787263l69.93254-69.93254q45.787263-45.787263 91.574525 0l-0.006386-0.006386q45.787263 45.787263 0 91.574525l-69.93254 69.93254q-45.787263 45.787263-91.574525 0l0.006386 0.006386q-45.787263-45.787263 0-91.574525Z" fill="#FFE33F" /><path d="M213.070679 685.947965a69.8736 69.8736 0 0 1-49.400102-119.282733L233.607394 496.710352a69.864569 69.864569 0 1 1 98.809236 98.827298l-69.936818 69.945849a69.422045 69.422045 0 0 1-49.409133 20.464466z m69.945849-199.415659A59.451714 59.451714 0 0 0 240.850334 503.93523l-69.936817 69.936818a59.605242 59.605242 0 1 0 84.323355 84.332386l69.945849-69.936817a59.605242 59.605242 0 0 0-42.166193-101.771436z" fill="#231815" /><path d="M213.190075 707.753701m45.787263-45.787263l69.93254-69.93254q45.787263-45.787263 91.574525 0l-0.006386-0.006386q45.787263 45.787263 0 91.574525l-69.93254 69.932541q-45.787263 45.787263-91.574525 0l0.006386 0.006386q-45.787263-45.787263 0-91.574526Z" fill="#FFE33F" /><path d="M304.754379 777.622634A69.8736 69.8736 0 0 1 255.354277 658.366994l69.936817-69.936817A69.864569 69.864569 0 1 1 424.10033 687.266506l-69.936818 69.936817a69.385921 69.385921 0 0 1-49.409133 20.419311z m69.945849-199.406628a59.451714 59.451714 0 0 0-42.166194 17.439048L262.597217 665.591872a59.605242 59.605242 0 1 0 84.323355 84.332387l69.936818-69.945849a59.605242 59.605242 0 0 0-42.157162-101.762404z" fill="#231815" /><path d="M304.616544 799.18484m45.787262-45.787263l69.93254-69.93254q45.787263-45.787263 91.574526 0l-0.006386-0.006386q45.787263 45.787263 0 91.574526l-69.932541 69.93254q-45.787263 45.787263-91.574525 0l0.006386 0.006386q-45.787263-45.787263 0-91.574526Z" fill="#FFE33F" /><path d="M396.185208 869.062494A69.8736 69.8736 0 0 1 346.794137 749.779761l69.936817-69.936817a69.864569 69.864569 0 0 1 98.800205 98.809235l-3.612439-3.612439 3.612439 3.612439-69.936818 69.945849a69.422045 69.422045 0 0 1-49.409133 20.464466z m69.945849-199.415659a59.451714 59.451714 0 0 0-42.166194 17.439049L354.019015 757.022701a59.605242 59.605242 0 1 0 84.323355 84.332387l69.945849-69.945849a59.605242 59.605242 0 0 0-42.166193-101.762404z" fill="#231815" /><path d="M394.010641 892.661651m45.787263-45.787263l69.93254-69.93254q45.787263-45.787263 91.574525 0l-0.006386-0.006386q45.787263 45.787263 0 91.574526l-69.93254 69.93254q-45.787263 45.787263-91.574525 0l0.006386 0.006386q-45.787263-45.787263 0-91.574526Z" fill="#FFE33F" /><path d="M485.58404 962.525321A69.864569 69.864569 0 0 1 436.202 843.251618l69.936818-69.936817a69.8736 69.8736 0 0 1 98.791173 98.809235l-69.945848 69.936818a69.37689 69.37689 0 0 1-49.400103 20.464467zM555.520858 763.127723a59.243998 59.243998 0 0 0-42.166193 17.466142L443.426878 850.494558a59.605242 59.605242 0 1 0 84.323356 84.332387l69.945848-69.945849 3.612439 3.612439-3.612439-3.612439A59.605242 59.605242 0 0 0 555.520858 763.127723z" fill="#231815" /><path d="M619.966768 266.796677L472.136736 414.626709c-26.081809 26.081809-67.561639 26.885577-92.640996 1.806219-25.079357-25.088388-24.27559-66.568218 1.80622-92.640996l147.830032-147.839063" fill="#FFE33F" /><path d="M424.163548 439.814439a67.859665 67.859665 0 0 1-48.289278-19.769072c-27.048136-27.048136-26.244369-71.85141 1.80622-99.883936l147.811969-147.830032 7.224878 7.224878L384.905368 327.404371c-24.040781 24.040781-24.844549 62.314571-1.80622 85.398056s61.411462 22.243593 85.407087-1.806219l147.830032-147.839063 7.224878 7.224877-147.81197 147.866157A72.944173 72.944173 0 0 1 424.163548 439.814439z" fill="#231815" /><path d="M804.192122 639.988711L616.146614 451.943203" fill="#FFFFFF" /><path d="M804.192122 645.109343a5.10257 5.10257 0 0 1-3.612438-1.499162L612.525144 455.564673a5.120632 5.120632 0 0 1 7.224878-7.224878l188.063571 188.027446a5.120632 5.120632 0 0 1-3.612439 8.742102z" fill="#231815" /><path d="M713.339284 730.84155L525.302806 542.796042" fill="#FFFFFF" /><path d="M713.339284 735.953151a5.066446 5.066446 0 0 1-3.612439-1.499162L521.681336 546.381387a5.120632 5.120632 0 0 1 7.224878-7.224877l188.05454 188.06357a5.120632 5.120632 0 0 1-3.612439 8.733071z" fill="#231815" /></svg>