<?xml version="1.0" standalone="no"?><!DOCTYPE svg PUBLIC "-//W3C//DTD SVG 1.1//EN" "http://www.w3.org/Graphics/SVG/1.1/DTD/svg11.dtd"><svg class="icon" width="200px" height="200.00px" viewBox="0 0 1024 1024" version="1.1" xmlns="http://www.w3.org/2000/svg"><path d="M953.933 361.455L818.884 138.9c-5.677-9.366-16.484-14.66-27.125-13.343l-340.421 38.041a28.106 28.106 0 0 0-14.975 6.432l-32.459 27.365-94.665-69.876c-11.492-8.475-27.592-7.022-37.3 3.552L71.422 348.249a28.028 28.028 0 0 0-3.29 33.763l49.304 80.168-5.477 4.416c-15.551 12.52-25.315 30.361-27.427 50.218-2.139 19.858 3.593 39.357 16.1 54.882a74.573 74.573 0 0 0 28.32 21.63 75.288 75.288 0 0 0-2.292 12.022c-2.14 19.857 3.593 39.357 16.1 54.88 10.81 13.421 25.627 22.495 42.067 26.106-6.028 22.329-1.694 47.152 13.883 66.516 14.261 17.69 35.49 27.838 58.227 27.838 3.502 0 6.986-0.263 10.431-0.753-0.622 17.353 4.722 35 16.447 49.56 14.262 17.69 35.49 27.838 58.255 27.838 16.977 0 33.598-5.869 46.872-16.552l18.236-14.703 42.212 47.71a30.33 30.33 0 0 0 1.976 2.03c15.66 14.454 35.764 22.298 56.938 22.298 1.124 0 2.276-0.027 3.428-0.068 22.407-0.891 43.142-10.463 58.392-26.961a79.037 79.037 0 0 0 15.194-24.122c15.826 12.822 35.244 19.336 56.115 18.568 22.436-0.905 43.17-10.477 58.365-26.96 7.542-8.16 13.302-17.54 17.059-27.647 32.281 15.017 71.83 8.256 97.146-19.198 17.361-18.788 24.493-43.445 21.668-67.059 16.181-3.552 31.513-11.917 43.58-24.999 31.432-34.023 29.32-87.286-3.674-117.688l-51.211-52.555 126.031-134.18c8.639-9.191 10.092-23.013 3.536-33.792zM222.406 497.436l-51.891 41.84c-4.224 3.402-8.667 4.114-11.63 4.114-5.677 0-10.943-2.523-14.508-6.939-3.127-3.853-4.526-8.708-4.004-13.63a18.307 18.307 0 0 1 6.829-12.48l51.92-41.839c4.223-3.414 8.639-4.127 11.628-4.127a18.542 18.542 0 0 1 14.482 6.911c6.445 7.98 5.183 19.705-2.826 26.15zM182.5 611.354a18.307 18.307 0 0 1 6.83-12.48l51.919-41.84c4.223-3.414 8.64-4.127 11.63-4.127a18.537 18.537 0 0 1 14.48 6.912c6.445 7.98 5.184 19.706-2.825 26.152l-51.891 41.84c-4.224 3.401-8.668 4.114-11.657 4.114-5.65 0-10.916-2.51-14.481-6.94-3.127-3.853-4.526-8.708-4.005-13.631z m59.955 106.251c-6.445-7.994-5.184-19.72 2.77-26.137l51.973-41.867c4.196-3.387 8.64-4.1 11.602-4.1 5.677 0 10.943 2.509 14.508 6.938 3.127 3.854 4.526 8.708 4.005 13.631a18.307 18.307 0 0 1-6.83 12.48l-51.919 41.84c-4.223 3.414-8.64 4.127-11.63 4.127a18.54 18.54 0 0 1-14.479-6.912z m111.243 79.442c-4.223 3.4-8.667 4.114-11.63 4.114-5.677 0-10.97-2.523-14.508-6.912-6.445-7.994-5.184-19.72 2.77-26.137l51.973-41.854c4.196-3.401 8.64-4.114 11.602-4.114 5.678 0 10.943 2.523 14.509 6.926a18.596 18.596 0 0 1 4.004 13.658c-0.521 4.923-2.935 9.353-6.83 12.48l-51.89 41.839z m484.303-135.488c-10.368 11.19-27.866 11.972-39.166 1.797l-54.304-50.15c-0.056-0.028-0.082-0.069-0.138-0.096v-0.014c-0.246-0.219-0.493-0.452-0.74-0.671h-0.028s0-0.014-0.082-0.069c0 0.028-0.027-0.028-0.054-0.068h-0.027c-11.41-9.558-28.47-8.544-38.673 2.564-10.477 11.41-9.736 29.128 1.618 39.632l54.114 49.93c0.137 0.125 0.274 0.26 0.411 0.385l10.23 9.461c11.3 10.422 12.014 28.086 1.592 39.372-10.395 11.258-28.03 12.013-39.357 1.563l-37.246-34.38-1.07-0.987-37.3-34.448-0.412-0.357c-11.355-10.49-29.182-9.819-39.659 1.591-10.532 11.396-9.819 29.156 1.563 39.687l38.289 35.353 0.027 0.013c5.101 4.992 8.037 11.63 8.338 18.788 0.302 7.432-2.332 14.536-7.405 20.007-5.047 5.472-11.904 8.64-19.336 8.942-7.378 0.466-14.508-2.304-19.994-7.364l-55.348-51.11c-0.246-0.22-0.493-0.453-0.74-0.672l-24.19-22.311c-11.383-10.532-29.182-9.792-39.687 1.59-10.504 11.41-9.791 29.17 1.618 39.688l24.602 22.71c11.492 11.052 13.165 30.47 3.4 41.057-5.047 5.458-11.93 8.64-19.364 8.927-7.103 0.275-13.768-2.043-19.117-6.595l-40.159-45.383c10.08-11.47 16.405-25.723 18.054-41.218 2.139-19.857-3.593-39.344-16.1-54.881-16.387-20.349-43.343-29.63-68.663-26.483 0.826-18.208-4.929-35.87-16.442-50.16-10.717-13.303-25.955-21.867-42.295-25.333 6.35-22.521 2.113-47.69-13.655-67.289-7.635-9.464-17.556-16.518-28.527-21.05 6.43-22.571 2.214-47.83-13.6-67.483-24.93-30.923-74.162-36.217-105.128-11.286l-2.336 1.884-34.387-55.929 169.003-183.06 63.621 46.966-77.965 65.73c-9.436 7.954-12.561 21.133-7.735 32.487 1.207 2.825 30.389 69.28 106.361 71.777 69.902 2.046 121.63-21.912 152.468-42.084L712.14 494.724l124.27 127.48c11.3 10.419 11.985 28.082 1.591 39.355z m-52.863-172.392l-34.381-35.284a25.601 25.601 0 0 0-3.428-3.003l-174.45-128.65c1.758-9.184-1.08-19.035-8.431-25.872-11.3-10.545-29.073-9.9-39.687 1.454-0.521 0.535-50.905 53.661-142.482 50.657-21.612-0.713-36.258-11.409-45.254-21.228l129.016-108.775 314.146-35.092 114.671 188.97-109.72 116.824z" fill="#EE3847" /></svg>