<?xml version="1.0" standalone="no"?><!DOCTYPE svg PUBLIC "-//W3C//DTD SVG 1.1//EN" "http://www.w3.org/Graphics/SVG/1.1/DTD/svg11.dtd"><svg t="1748320567941" class="icon" viewBox="0 0 1024 1024" version="1.1" xmlns="http://www.w3.org/2000/svg" p-id="2317" xmlns:xlink="http://www.w3.org/1999/xlink" width="200" height="200"><path d="M302.6432 927.0784H175.2576c-33.3824 0-60.416-27.0848-60.416-60.416V453.12c0-33.3824 27.0848-60.416 60.416-60.416h127.3856c24.6784 0 44.6464 20.0192 44.6464 44.6464v445.0304c0.0512 24.6784-19.968 44.6976-44.6464 44.6976z" fill="#F3556E" p-id="2318"></path><path d="M262.9632 395.52s28.8256 5.0688 28.8256 60.5184v402.176c0 7.2192-5.9392 13.056-13.1584 13.056h-105.984c-29.7984 0-42.24-0.768-49.3568-18.0736-4.1472 28.2624-8.2944 72.3456 71.2192 72.3456h120.2176l-3.4304-11.4688c19.968-6.5024 30.5152-23.6032 30.5152-68.7104V452.7104c0-39.1168-39.8336-66.816-78.848-57.1904z" fill="#D6283F" p-id="2319"></path><path d="M852.6848 430.336h-215.04c106.0352-220.9792 50.9952-299.1616 10.1888-307.968-40.8064-8.8576-84.992-5.4272-125.0816 111.5136S358.5536 430.6432 358.5536 430.6432l-7.1168 472.0128h409.9584c30.5152 0 57.1904-20.4288 65.1776-49.8688l91.2896-337.3568c11.5712-42.9056-20.736-85.0944-65.1776-85.0944z" fill="#FAC573" p-id="2320"></path><path d="M609.1776 103.3728s104.8064 58.7776-1.4848 288.7168c-11.3152 26.368-2.2528 65.5872 33.9456 56.5248 27.8528-67.0208 137.1648-324.096-32.4608-345.2416zM827.8016 436.5824s37.632 4.608 17.1008 99.328l-151.0912 3.584s-3.0208 38.0928 29.5936 38.0928h110.7456c-4.6592 16.9984-9.216 33.9968-13.7216 50.6368l-145.1008 3.4304s-3.0208 38.0928 29.5936 38.0928h104.4992c-4.608 17.408-8.96 34.1504-13.056 49.8688l-146.2784 3.4816s-3.0208 38.0928 29.5936 38.0928h105.984c-5.5296 21.76-10.0864 39.7824-13.2096 52.48l-131.6352 3.1232s-1.8432 24.064 13.824 33.9456H340.8896v52.5824h438.7328l0.4608-5.6832c19.7632-9.3696 39.7824-36.4032 61.2352-106.6496 43.7248-143.2576 54.272-207.3088 67.84-259.328 13.6192-52.0704-9.0112-104.0896-81.3568-95.0784z" fill="#EF981A" p-id="2321"></path><path d="M922.5216 444.3648c-16.7936-21.9136-42.24-34.5088-69.888-34.5088h-183.04c63.7952-144.4352 55.1936-221.9008 35.584-261.9392-11.8272-24.2176-31.1808-40.8576-53.0432-45.568-48.7936-10.5472-104.6016-3.9936-148.7872 124.8768-30.208 88.1152-113.2544 155.3408-144.128 177.9712-11.2128-19.6608-32.3584-32.9728-56.576-32.9728H175.2576c-44.5952 0-80.896 36.3008-80.896 80.896v413.4912c0 44.5952 36.3008 80.896 80.896 80.896h127.3856c20.48 0 38.8096-9.5232 50.7392-24.3712h407.9616c39.68 0 74.5984-26.7264 84.9408-65.024l91.2896-337.3568c7.2192-26.624 1.7408-54.4768-15.0528-76.3904zM326.8608 882.3808c0 13.312-10.8544 24.1664-24.1664 24.1664H175.2576c-22.016 0-39.936-17.92-39.936-39.936V453.12c0-22.016 17.92-39.936 39.936-39.936h127.3856c13.3632 0 24.1664 10.8544 24.1664 24.1664v445.0304z m434.5344-0.2048H367.8208V448.8192c0.6144-0.3072 1.2288-0.5632 1.8432-0.9216 5.3248-3.4304 130.56-85.1456 172.4928-207.4112 38.3488-111.7696 74.8032-103.8848 101.376-98.1504 4.5056 0.9728 15.9744 5.2224 24.9344 23.552 11.1616 22.784 28.6208 93.2352-49.2544 255.5904-3.0208 6.3488-2.6112 13.824 1.1264 19.7632a20.51584 20.51584 0 0 0 17.3568 9.5744h215.04c14.7456 0 28.3648 6.7072 37.3248 18.432s11.9296 26.624 8.0384 40.8576l-2.7136 9.984H714.24c-11.3152 0-20.48 9.1648-20.48 20.48s9.1648 20.48 20.48 20.48h170.0352l-14.1824 52.3776c-1.8432-0.5632-3.7888-0.9216-5.8368-0.9216h-168.6016c-11.3152 0-20.48 9.1648-20.48 20.48s9.1648 20.48 20.48 20.48h163.584l-14.1824 52.48c-1.9456-0.6144-3.9936-1.024-6.144-1.024h-168.6016c-11.3152 0-20.48 9.1648-20.48 20.48s9.1648 20.48 20.48 20.48h163.9424l-13.9264 51.456h-159.0784c-11.3152 0-20.48 9.1648-20.48 20.48s9.1648 20.48 20.48 20.48h148.0192l-2.5088 9.1648a47.07328 47.07328 0 0 1-45.3632 34.7136z" fill="#211D38" p-id="2322"></path><path d="M392.6016 461.4656c-3.8912 0-7.7312-1.792-10.24-5.12-4.2496-5.6832-3.072-13.6704 2.56-17.92 74.4448-55.7056 115.5072-112.128 136.8576-149.6576 3.4816-6.144 11.3152-8.2944 17.4592-4.8128 6.144 3.4816 8.2944 11.3152 4.8128 17.4592-22.528 39.6288-65.792 99.1232-143.7696 157.4912-2.304 1.7408-4.9664 2.56-7.68 2.56zM555.1104 261.2224c-1.4848 0-3.0208-0.256-4.5056-0.8192a12.8512 12.8512 0 0 1-7.4752-16.4864c5.4272-14.3872 7.168-22.9888 7.168-23.0912a12.83584 12.83584 0 0 1 15.0016-10.0864c6.912 1.3312 11.4688 8.0384 10.1376 14.9504-0.1024 0.4096-2.048 10.5472-8.3968 27.2384-1.8944 5.12-6.7584 8.2944-11.9296 8.2944zM149.9648 665.1904a12.8 12.8 0 0 1-12.8-12.8V449.3312c0-19.3536 15.7696-35.1232 35.1232-35.1232a12.8 12.8 0 0 1 0 25.6c-5.2736 0-9.5232 4.2496-9.5232 9.5232v203.0592a12.8 12.8 0 0 1-12.8 12.8zM241.5616 439.808h-21.9648a12.8 12.8 0 0 1 0-25.6h21.9648a12.8 12.8 0 0 1 0 25.6z" fill="#FFFFFF" p-id="2323"></path><path d="M234.5472 211.5584l31.0272-9.3696c6.2464-1.8944 6.2464-10.7008 0-12.5952l-31.0272-9.3696c-2.0992-0.6144-3.7376-2.304-4.4032-4.4032l-9.3696-31.0272c-1.8944-6.2464-10.7008-6.2464-12.5952 0l-9.3696 31.0272c-0.6144 2.0992-2.304 3.7376-4.4032 4.4032l-31.0272 9.3696c-6.2464 1.8944-6.2464 10.7008 0 12.5952l31.0272 9.3696c2.0992 0.6144 3.7376 2.304 4.4032 4.4032l9.3696 31.0272c1.8944 6.2464 10.7008 6.2464 12.5952 0l9.3696-31.0272c0.6656-2.0992 2.304-3.7376 4.4032-4.4032z" fill="#FAC573" p-id="2324"></path><path d="M854.9376 328.8064m-38.4512 0a38.4512 38.4512 0 1 0 76.9024 0 38.4512 38.4512 0 1 0-76.9024 0Z" fill="#E2E5F1" p-id="2325"></path></svg>