<?xml version="1.0" standalone="no"?><!DOCTYPE svg PUBLIC "-//W3C//DTD SVG 1.1//EN" "http://www.w3.org/Graphics/SVG/1.1/DTD/svg11.dtd"><svg class="icon" width="200px" height="200.00px" viewBox="0 0 1024 1024" version="1.1" xmlns="http://www.w3.org/2000/svg"><path d="M294.4 360.5248a151.4752 151.4752 0 1 0 0 302.9504 151.4752 151.4752 0 0 0 0-302.9504z m0 64a87.4752 87.4752 0 1 1 0 174.9504 87.4752 87.4752 0 0 1 0-174.9504zM738.1248 198.4a117.3248 117.3248 0 1 0 0 234.6752 117.3248 117.3248 0 0 0 0-234.6752z m0 64a53.3248 53.3248 0 1 1 0 106.6752 53.3248 53.3248 0 0 1 0-106.6752zM738.1248 590.9248a117.3248 117.3248 0 1 0 0 234.6752 117.3248 117.3248 0 0 0 0-234.6752z m0 64a53.3248 53.3248 0 1 1 0 106.6752 53.3248 53.3248 0 0 1 0-106.6752z" fill="#FB553C" /><path d="M683.392 303.5392l25.344 58.7776L394.24 497.92l-25.344-58.752zM368.4864 576.2816l26.7776-58.112 313.856 144.5632-26.7776 58.112z" fill="#FB553C" /></svg>