<?xml version="1.0" standalone="no"?><!DOCTYPE svg PUBLIC "-//W3C//DTD SVG 1.1//EN" "http://www.w3.org/Graphics/SVG/1.1/DTD/svg11.dtd"><svg class="icon" width="200px" height="200.00px" viewBox="0 0 1024 1024" version="1.1" xmlns="http://www.w3.org/2000/svg"><path d="M512.22755555 59.16444445c-249.96977778 0-452.608 202.63822222-452.608 452.608 0 249.96977778 202.63822222 452.608 452.608 452.608S964.83555555 761.74222222 964.83555555 511.77244445C964.83555555 261.80266667 762.19733333 59.16444445 512.22755555 59.16444445z m-31.28888888 735.91466666c3.18577778 3.41333333 6.94044445 5.12 11.264 5.12 5.57511111 0 11.83288889-2.73066667 18.65955555-8.41955556 19.79733333-15.47377778 39.70844445-37.66044445 59.96088889-66.44622222l18.09066667 12.288c-23.66577778 35.72622222-51.31377778 65.99111111-83.17155556 90.90844445-23.21066667 18.09066667-45.51111111 27.07911111-67.01511111 27.07911111-14.22222222 0-25.82755555-4.20977778-34.816-12.62933334-8.98844445-8.41955555-13.53955555-19.00088889-13.53955556-31.85777777s4.32355555-34.13333333 12.8568889-63.82933333l67.69777777-232.67555556c10.69511111-37.77422222 16.15644445-61.66755555 16.15644445-71.56622222 0-7.28177778-2.73066667-13.42577778-8.07822222-18.31822222-5.34755555-4.89244445-12.62933333-7.39555555-21.61777778-7.39555556-7.73688889 0-23.66577778 1.93422222-47.67288889 5.80266666v-20.02488888l179.2-29.696-102.51377778 364.20266666c-6.82666667 24.46222222-10.35377778 39.13955555-10.35377778 43.80444445 0.11377778 5.68888889 1.70666667 10.24 4.89244445 13.65333333zM618.95111111 256.11377778c-10.12622222 10.35377778-22.18666667 15.47377778-36.40888889 15.47377777s-26.39644445-5.12-36.75022222-15.47377777c-10.35377778-10.35377778-15.47377778-22.528-15.47377778-36.75022223 0-14.22222222 5.00622222-26.28266667 15.13244445-36.40888888 10.12622222-10.12622222 22.41422222-15.13244445 37.09155555-15.13244445 14.56355555 0 26.85155555 5.00622222 36.75022223 15.13244445 9.89866667 10.12622222 14.79111111 22.18666667 14.7911111 36.40888888s-5.12 26.51022222-15.13244444 36.75022223z" fill="#70c6f2" /></svg>