<?xml version="1.0" standalone="no"?><!DOCTYPE svg PUBLIC "-//W3C//DTD SVG 1.1//EN" "http://www.w3.org/Graphics/SVG/1.1/DTD/svg11.dtd"><svg class="icon" width="200px" height="200.00px" viewBox="0 0 1024 1024" version="1.1" xmlns="http://www.w3.org/2000/svg"><path d="M0 0h1024v1024H0V0z" fill="#202425" opacity=".01" /><path d="M238.933333 68.266667a68.266667 68.266667 0 0 0-68.266666 68.266666v34.133334a34.133333 34.133333 0 0 0 34.133333 34.133333h614.4a34.133333 34.133333 0 0 0 34.133333-34.133333V136.533333a68.266667 68.266667 0 0 0-68.266666-68.266666H238.933333zM170.666667 238.933333a68.266667 68.266667 0 0 0-68.266667 68.266667v34.133333a34.133333 34.133333 0 0 0 34.133333 34.133334h750.933334a34.133333 34.133333 0 0 0 34.133333-34.133334V307.2a68.266667 68.266667 0 0 0-68.266667-68.266667H170.666667z" fill="#FFAA44" /><path d="M512 546.133333a136.6016 136.6016 0 0 0 132.334933-102.741333c4.642133-18.261333 19.456-33.792 38.331734-33.792h238.933333a68.266667 68.266667 0 0 1 68.266667 68.266667v341.333333a136.533333 136.533333 0 0 1-136.533334 136.533333H170.666667a136.533333 136.533333 0 0 1-136.533334-136.533333V477.866667a68.266667 68.266667 0 0 1 68.266667-68.266667h238.933333c18.8416 0 33.6896 15.530667 38.331734 33.792A136.6016 136.6016 0 0 0 512 546.133333z" fill="#FF7744" /><path d="M324.266667 750.933333a51.2 51.2 0 0 1 51.2-51.2h273.066666a51.2 51.2 0 0 1 0 102.4h-273.066666A51.2 51.2 0 0 1 324.266667 750.933333z" fill="#FFFFFF" /></svg>