<?xml version="1.0" standalone="no"?><!DOCTYPE svg PUBLIC "-//W3C//DTD SVG 1.1//EN" "http://www.w3.org/Graphics/SVG/1.1/DTD/svg11.dtd"><svg class="icon" width="200px" height="200.00px" viewBox="0 0 1024 1024" version="1.1" xmlns="http://www.w3.org/2000/svg"><path d="M840.65 959.09c64.32-104.05 99.94-224.88 99.94-344.2 0-52.59-5.41-104.04-18.65-153.83-9.7-34.31-37.85-61.35-74.58-61.35-22.19 0-42.33 9.69-55.94 25.18v-6.54c0-41.21-33.38-74.58-74.58-74.58-41.21 0-74.58 33.38-74.58 74.58v-37.29c0-41.2-33.38-74.58-74.58-74.58-41.21 0-74.58 33.38-74.58 74.58V138.68c0-41.21-33.38-74.58-74.58-74.58s-74.58 33.37-74.58 74.58V564c0 20.69-16.78 37.29-37.29 37.29-3.54 0-6.9-0.56-10.25-1.49l-105.35-42.88c-10.07-5.04-21.44-8.03-33.56-8.03-41.21 0-74.58 33.38-74.58 74.59 0 30.96 19.02 57.61 45.87 68.99 121.01 62.46 217.97 139.1 285.84 266.63l426.03-0.01z" fill="#66B3FF" /></svg>