<?xml version="1.0" standalone="no"?><!DOCTYPE svg PUBLIC "-//W3C//DTD SVG 1.1//EN" "http://www.w3.org/Graphics/SVG/1.1/DTD/svg11.dtd"><svg class="icon" width="200px" height="200.00px" viewBox="0 0 1024 1024" version="1.1" xmlns="http://www.w3.org/2000/svg"><path d="M636.343 394.971L614.4 373.03c-7.314-7.315-21.943-14.629-36.571-14.629-29.258 0-51.2 21.943-51.2 51.2 0 14.629 7.314 21.943 14.628 29.257 0 7.314 7.314 7.314 14.629 7.314l14.628 14.629 7.315 7.314c43.885 51.2 29.257 138.972-21.943 190.172L336.457 877.714c-51.2 51.2-131.657 51.2-182.857 0l-7.314-7.314c-51.2-51.2-51.2-131.657 0-182.857l95.085-95.086c14.629-7.314 21.943-21.943 21.943-43.886 0-29.257-21.943-51.2-51.2-51.2-14.628 0-21.943 0-29.257 7.315-7.314 0-7.314 7.314-14.628 7.314l-95.086 95.086a242.834 242.834 0 0 0 0 343.771c95.086 95.086 248.686 95.086 343.771 0L636.343 731.43c95.086-87.772 102.4-241.372 0-336.458z m0 0" fill="#1296DB" /><path d="M950.857 73.143a242.834 242.834 0 0 0-343.771 0L387.657 292.57c-95.086 87.772-95.086 226.743-7.314 321.829l7.314 7.314 14.629 14.629c0 7.314 7.314 7.314 14.628 7.314h21.943c29.257 0 43.886-21.943 43.886-43.886 0-7.314 0-14.628-7.314-21.942-7.315-14.629-14.629-21.943-21.943-29.258l-7.315-7.314c-51.2-51.2-29.257-124.343 21.943-175.543l219.429-219.428c51.2-51.2 131.657-51.2 182.857 0l7.314 7.314c51.2 51.2 51.2 131.657 0 182.857l-95.085 95.086c-14.629 7.314-21.943 21.943-21.943 43.886 0 29.257 21.943 51.2 51.2 51.2 7.314 0 21.943 0 29.257-7.315 7.314 0 7.314-7.314 14.628-14.628l95.086-87.772c95.086-95.085 95.086-248.685 0-343.771z m0 0" fill="#D81E06" /></svg>