<?xml version="1.0" standalone="no"?><!DOCTYPE svg PUBLIC "-//W3C//DTD SVG 1.1//EN" "http://www.w3.org/Graphics/SVG/1.1/DTD/svg11.dtd"><svg class="icon" width="200px" height="200.00px" viewBox="0 0 1024 1024" version="1.1" xmlns="http://www.w3.org/2000/svg"><path d="M542.125214 402.359596h61.80202c158.90101 0 286.90101 128 286.90101 286.90101v8.791919c0 158.90101-128 286.90101-286.90101 286.90101h-61.80202c-158.90101 0-286.90101-128-286.90101-286.90101v-8.791919c0-158.90101 128-286.90101 286.90101-286.90101z m0 0" fill="#FDDFDF" /><path d="M584.921173 1020.250505H439.208042C249.535315 1020.250505 95.030264 865.745455 95.030264 675.943434v-57.40606c0-189.80202 154.505051-344.177778 344.177778-344.177778h145.583838c189.80202 0 344.177778 154.505051 344.177778 344.177778v57.40606c0.129293 189.80202-154.246465 344.307071-344.048485 344.307071zM439.208042 318.448485c-163.29697 0-300.088889 132.39596-300.088889 300.088889v57.40606c0 163.29697 132.39596 300.088889 300.088889 300.088889h145.583838c163.29697 0 300.088889-132.39596 300.088889-300.088889v-57.40606c0-163.29697-132.39596-300.088889-300.088889-300.088889H439.208042z m0 0" fill="#FDDFDF" /><path d="M368.614103 570.052525h48.484848c8.791919 0 17.713131 8.791919 17.713131 17.713132v123.60404c0 8.791919-8.791919 17.713131-17.713131 17.713131h-48.484848c-8.791919 0-17.713131-8.791919-17.713132-17.713131v-123.60404c4.525253-13.317172 8.921212-17.713131 17.713132-17.713132z m238.286868 0H650.98986c8.791919 0 17.713131 8.791919 17.713132 17.713132v123.60404c0 8.791919-8.791919 17.713131-17.713132 17.713131h-44.088889c-8.791919 0-17.713131-8.791919-17.713131-17.713131v-123.60404c0.129293-13.317172 8.921212-17.713131 17.713131-17.713132z m0 0" fill="#EE9B9B" /><path d="M730.505012 336.161616h-44.088889c0-114.682828-48.484848-286.90101-123.604041-286.90101h-105.890909c-74.989899 0-123.60404 172.088889-123.60404 286.90101h-44.088889c0-105.890909 39.692929-330.989899 167.692929-330.989899h105.890909c128 0 167.692929 225.09899 167.69293 330.989899z m0 0" fill="#FDDFDF" /></svg>