<?xml version="1.0" standalone="no"?><!DOCTYPE svg PUBLIC "-//W3C//DTD SVG 1.1//EN" "http://www.w3.org/Graphics/SVG/1.1/DTD/svg11.dtd"><svg class="icon" width="200px" height="200.00px" viewBox="0 0 1024 1024" version="1.1" xmlns="http://www.w3.org/2000/svg"><path d="M512 0C229.224296 0 0 229.224296 0 512c0 282.775704 229.224296 512 512 512s512-229.224296 512-512C1024 229.224296 794.775704 0 512 0zM741.281185 282.718815c47.217778 47.217778 66.180741 90.756741 66.180741 90.756741l-156.937481 156.918519-1.801481-312.054519C648.741926 218.320593 694.08237 235.501037 741.281185 282.718815zM512 187.733333c66.787556 0 110.971259 17.370074 110.971259 17.370074L622.971259 427.045926 401.047704 207.663407C401.047704 207.663407 445.231407 187.733333 512 187.733333zM282.718815 282.718815c47.236741-47.217778 90.756741-66.180741 90.756741-66.180741l156.918519 156.918519-312.035556 1.782519C218.339556 375.258074 235.501037 329.936593 282.718815 282.718815zM187.733333 512c0-66.768593 17.389037-110.952296 17.389037-110.952296L427.045926 401.047704 207.644444 622.952296C207.644444 622.952296 187.733333 578.768593 187.733333 512zM282.718815 741.281185c-47.217778-47.217778-66.180741-90.756741-66.180741-90.756741l156.937481-156.918519 1.801481 312.054519C375.258074 805.660444 329.936593 788.498963 282.718815 741.281185zM512 836.266667c-66.787556 0-110.971259-17.370074-110.971259-17.370074L401.028741 596.954074l221.923556 219.401481C622.971259 816.355556 578.787556 836.266667 512 836.266667zM741.281185 741.281185c-47.217778 47.217778-90.756741 66.180741-90.756741 66.180741l-156.918519-156.937481 312.054519-1.801481C805.679407 648.741926 788.498963 694.063407 741.281185 741.281185zM818.87763 622.952296 596.954074 622.952296 816.355556 401.028741c0 0 19.911111 44.183704 19.911111 110.952296C836.266667 578.768593 818.87763 622.952296 818.87763 622.952296z" fill="#33CC00" /></svg>