<?xml version="1.0" standalone="no"?><!DOCTYPE svg PUBLIC "-//W3C//DTD SVG 1.1//EN" "http://www.w3.org/Graphics/SVG/1.1/DTD/svg11.dtd"><svg class="icon" width="200px" height="200.00px" viewBox="0 0 1024 1024" version="1.1" xmlns="http://www.w3.org/2000/svg"><path d="M285.184 236.544v550.912c0 25.6-20.992 47.104-47.104 47.104s-47.104-20.992-47.104-47.104V236.544c0-25.6 20.992-47.104 47.104-47.104s47.104 20.992 47.104 47.104z m80.896 242.688c-10.752 7.68-17.408 19.968-17.408 32.768 0 13.312 6.656 25.6 16.896 33.28l403.456 282.112c12.288 8.704 28.672 9.728 41.984 2.56 13.312-6.656 21.504-20.48 21.504-35.84V229.888c0-14.848-8.192-28.672-21.504-35.84-13.312-6.656-29.696-5.632-41.984 2.56L366.08 479.232z" fill="#2c2c2c" /></svg>