<?xml version="1.0" standalone="no"?><!DOCTYPE svg PUBLIC "-//W3C//DTD SVG 1.1//EN" "http://www.w3.org/Graphics/SVG/1.1/DTD/svg11.dtd"><svg class="icon" width="200px" height="200.00px" viewBox="0 0 1024 1024" version="1.1" xmlns="http://www.w3.org/2000/svg"><path d="M48.64 979.6096s467.7632-58.5216 503.1424-70.6048l159.3856-294.7072a47.616 47.616 0 0 1 8.448-11.3152c19.8656-19.968 18.8416-53.4528-2.304-74.6496L483.5328 293.9392c-20.5312-20.48-55.1936-21.504-74.2912-2.2528-3.3792 3.3792-7.168 6.1952-11.3664 8.5504l-294.0928 159.744C85.8624 512 20.48 755.0976 6.2464 956.6208l245.248-230.2464c-20.48-35.328-15.9232-81.0496 14.2848-111.2576a92.2624 92.2624 0 0 1 130.3552 130.4064 92.0576 92.0576 0 0 1-111.2576 14.2848L48.64 979.6096z" fill="#37AD44" /><path d="M396.1344 615.1168a92.16 92.16 0 0 0-141.1072 13.056 90.9824 90.9824 0 0 1 26.0096-74.24 92.16 92.16 0 0 1 141.2096 117.1456 91.3408 91.3408 0 0 0-26.112-55.9616z m170.9568 232.704l159.3344-294.656c1.024-1.792 2.4576-3.2256 3.6352-4.864 7.168 18.7904 3.8912 40.2432-10.496 54.6816a47.616 47.616 0 0 0-8.3968 11.3152l-159.3856 294.7072C516.4032 921.088 48.64 979.6096 48.64 979.6096l73.6768-68.608c126.5664-16.0768 417.1776-53.76 444.7744-63.1808z m-486.656-306.9952c-23.8592 100.3008-50.432 234.8032-58.88 354.6624l218.3168-205.056c1.4336 12.4416 5.12 24.7296 11.5712 35.9424L6.2464 956.672c10.3424-146.432 47.6672-314.7776 74.24-415.8464zM630.4768 14.2336c-20.2752 8.2944-56.8832 30.208-98.56 71.5264-41.6256 41.472-63.5904 77.7728-71.936 97.792l365.9776 363.5712c20.0704-8.2432 56.6784-30.0032 98.4576-71.5264 41.6256-41.3184 63.488-77.824 71.8336-97.7408L630.4768 14.2336z" fill="#37AD44" /><path d="M810.6496 455.3728c20.1216-8.2944 56.7296-30.0032 98.4576-71.5264 17.92-17.8176 32.0512-34.6624 43.1616-49.7152l43.9808 43.7248c-8.3456 19.968-30.208 56.4224-71.8336 97.792-41.7792 41.472-78.336 63.1808-98.4576 71.4752l-365.9776-363.52c4.7616-11.4176 14.08-28.16 28.7232-48.0256l321.9456 319.7952z" fill="#37AD44" /></svg>