<?xml version="1.0" standalone="no"?><!DOCTYPE svg PUBLIC "-//W3C//DTD SVG 1.1//EN" "http://www.w3.org/Graphics/SVG/1.1/DTD/svg11.dtd"><svg class="icon" width="200px" height="200.00px" viewBox="0 0 1024 1024" version="1.1" xmlns="http://www.w3.org/2000/svg"><path d="M801.792 55.1424l-320 320a42.6496 42.6496 0 0 0-12.4416 30.208V512c0 23.552 19.0976 42.6496 42.6496 42.6496h106.6496a42.6496 42.6496 0 0 0 30.208-12.4928l320-320a42.6496 42.6496 0 0 0 0-60.3136l-106.7008-106.7008a42.6496 42.6496 0 0 0-60.3136 0z" fill="#4DCDC4" /><path d="M341.3504 469.3504a42.6496 42.6496 0 0 1 5.3248 84.992l-5.3248 0.3072H192a64 64 0 0 0-6.5536 127.6928l6.5536 0.3072h640a149.3504 149.3504 0 0 1 8.7552 298.4448l-8.7552 0.256H384a42.6496 42.6496 0 0 1-5.376-84.992L384 896h448a64 64 0 0 0 6.5536-127.6928L832 768H192a149.3504 149.3504 0 0 1-8.7552-298.3936l8.7552-0.256h149.3504z" fill="#4DCDC4" /></svg>