<?xml version="1.0" standalone="no"?><!DOCTYPE svg PUBLIC "-//W3C//DTD SVG 1.1//EN" "http://www.w3.org/Graphics/SVG/1.1/DTD/svg11.dtd"><svg class="icon" width="200px" height="200.00px" viewBox="0 0 1024 1024" version="1.1" xmlns="http://www.w3.org/2000/svg"><path d="M958.093368 472.148943l-156.899683 43.555144-54.088369 15.01499-37.544642 10.422639-47.386711 13.155523L286.063002 658.701798l-37.509829 10.4124-139.463086 38.715001c44.652803 91.930976 118.502102 163.573695 206.723361 206.556459a449.852747 449.852747 0 0 0 45.632709 19.210053c83.984213 30.016669 177.735747 35.315535 270.205313 9.647521a456.437676 456.437676 0 0 0 18.080653-5.431978 450.265393 450.265393 0 0 0 36.545282-13.564074c85.885661-36.181785 155.734445-97.152023 203.354612-171.968942a450.884874 450.884874 0 0 0 28.607734-52.293409c32.371721-69.764821 47.001711-148.083599 39.853617-227.835886z" fill="#06A258" /><path d="M80.236609 631.446683a453.739606 453.739606 0 0 0 13.252797 40.311316l274.231428-76.125508-104.085091-457.003913C106.704318 243.01061 27.084118 439.97177 80.236609 631.446683z" fill="#65B3EA" /><path d="M943.444947 391.825299a453.210232 453.210232 0 0 0-13.651108-41.349587 448.090554 448.090554 0 0 0-15.896599-36.458247c-23.759399-48.472082-55.646798-91.266442-93.484286-127.146166a448.278958 448.278958 0 0 0-37.632701-31.947811 450.453797 450.453797 0 0 0-125.339944-66.924424 448.197044 448.197044 0 0 0-41.724347-12.15309c-71.376495-17.081292-147.959703-16.833499-223.685876 4.187896-33.091547 9.185725-64.274479 21.858975-93.272332 37.504709l29.976736 131.618716 8.647135 37.963432 67.891019 298.090149 243.9342-67.714902 6.721113-1.865611 31.278157-8.681949 65.933254-18.302847 199.727833-55.444059a452.891788 452.891788 0 0 0-9.422254-41.376209z" fill="#EEF1F3" /><path d="M630.363359 372.86099l-25.300422-141.296955 215.350017-44.69376a448.278958 448.278958 0 0 0-37.632701-31.947811l-109.293851 22.683243-16.046093-89.607667a448.197044 448.197044 0 0 0-41.724347-12.15309l19.639083 109.674754-306.620555 63.635543 8.647135 37.963433 229.54893-47.640647 51.322719 286.60876 37.675706-10.458478-18.702181-104.433228 292.568064-60.719375a448.090554 448.090554 0 0 0-15.896599-36.458247l-283.534905 58.843525z" fill="#E2E4E7" /><path d="M263.635743 138.628578L367.721858 595.633515l37.550786-10.424687-106.51489-467.672297a444.565144 444.565144 0 0 0-35.122011 21.092047z"  /><path d="M109.090087 707.828175l849.003281-235.679232a447.121911 447.121911 0 0 0-5.226167-38.950507L93.489406 671.759023a448.453027 448.453027 0 0 0 15.600681 36.069152z"  /><path d="M618.25225 526.086793l30.954594-8.592867-243.9342 67.714902z" fill="#FFD137" /><path d="M662.172939 554.296215l47.386711-13.155523 37.544642-10.422639 54.088369-15.013966z" fill="#18935A" /><path d="M952.866177 433.198436l-199.727833 55.44406-65.933254 18.302846-37.99927 10.54756-30.95357 8.592867-212.979606 59.122035L298.757754 117.536531a444.050105 444.050105 0 0 0-35.120987 21.092047L367.721858 595.633515 93.489406 671.759023a448.675221 448.675221 0 0 0 15.599657 36.070176l553.082852-153.53196 139.020746-38.592128 156.899683-43.555144a446.306859 446.306859 0 0 0-5.226167-38.951531z" fill="#FFD137" /><path d="M801.694389 541.733551c4.355822-10.296695 3.622684-18.875227-0.500704-26.029464l-54.088369 15.01499 16.057357 49.45506c19.212102-13.436082 33.549246-26.670448 38.531716-38.440586zM662.172939 554.296215c-40.189468 67.988293-88.500792 120.545878-88.500792 120.545878s88.324676-34.707317 155.489724-73.318901l-19.603245-60.381476-47.385687 13.154499z" fill="#18935A" /><path d="M918.240775 699.982781l-103.579267 38.815347-51.499859-158.625015-16.057357-49.45506-37.544642 10.422639 19.603245 60.381476 49.008624 150.951642-130.371562 48.855034-16.561133-52.901627-5.70844-19.332926-0.314349 0.092154-0.002047-0.005119-0.315373 0.098297-295.552836 87.260807-43.282777-157.838632-37.509829 10.4124 67.260275 245.270436a449.852747 449.852747 0 0 0 45.632709 19.210054L339.644522 854.091216l259.862541-76.723486 11.782426 37.641916 11.649314 37.209816 26.794344 85.590768a450.265393 450.265393 0 0 0 36.545281-13.564074l-26.832229-85.70852 230.186842-86.260421a451.207414 451.207414 0 0 0 28.607734-52.294434z" fill="#069B54" /><path d="M747.104292 530.718053l-37.544642 10.422639 19.603245 60.381476c12.260604-7.048772 23.814692-14.228608 33.998754-21.349055l-16.057357-49.45506z" fill="#188C56" /><path d="M698.359843 480.453059c-3.354413 8.891856-7.107136 17.742754-11.153729 26.493307l65.933254-18.302847c-21.394108-5.436074-43.767099-7.471657-54.779525-8.19046z" fill="#CED1D6" /><path d="M753.139368 488.642496l-65.933254 18.302846c-7.525926 16.276479-16.075787 32.195604-25.033175 47.349849l139.020746-38.592128c-7.735833-13.421746-27.435328-21.822113-48.054317-27.060567z" fill="#DCB735" /><path d="M573.672147 257.357994c-78.21536 0-141.619494 63.405157-141.619494 141.619494 0 121.831941 141.619494 275.863581 141.619494 275.863581s87.103121-94.741679 124.686672-194.389033c10.336629-27.410753 16.931797-55.191147 16.931798-81.474548 0.001024-78.213313-63.404134-141.619494-141.61847-141.619494z" fill="#FFD137" /><path d="M573.672147 404.018323m-67.148666 0a67.148666 67.148666 0 1 0 134.297331 0 67.148666 67.148666 0 1 0-134.297331 0Z" fill="#FCAC32" /><path d="M573.672147 404.018323m-42.537352 0a42.537352 42.537352 0 1 0 85.074704 0 42.537352 42.537352 0 1 0-85.074704 0Z" fill="#FFFFFF" /></svg>