<?xml version="1.0" standalone="no"?><!DOCTYPE svg PUBLIC "-//W3C//DTD SVG 1.1//EN" "http://www.w3.org/Graphics/SVG/1.1/DTD/svg11.dtd"><svg class="icon" width="200px" height="200.00px" viewBox="0 0 1024 1024" version="1.1" xmlns="http://www.w3.org/2000/svg"><path d="M967.111111 512c0 251.363556-203.747556 455.111111-455.111111 455.111111S56.888889 763.363556 56.888889 512 260.636444 56.888889 512 56.888889s455.111111 203.747556 455.111111 455.111111z m-324.664889-28.444444H312.888889a28.444444 28.444444 0 0 0 0 56.888888h329.557333l-150.556444 150.556445a28.444444 28.444444 0 0 0 40.220444 40.220444l199.111111-199.111111a28.444444 28.444444 0 0 0 0-40.220444l-199.111111-199.111111a28.444444 28.444444 0 0 0-40.220444 40.220444L642.446222 483.555556z" fill="#d4237a" /></svg>