<?xml version="1.0" standalone="no"?><!DOCTYPE svg PUBLIC "-//W3C//DTD SVG 1.1//EN" "http://www.w3.org/Graphics/SVG/1.1/DTD/svg11.dtd"><svg class="icon" width="200px" height="151.70px" viewBox="0 0 1350 1024" version="1.1" xmlns="http://www.w3.org/2000/svg"><path d="M900.629576 627.257941c88.517209-28.404776 170.560772-137.796193 105.163729-264.09836-71.870689-138.853115-143.873494-111.637376-200.815162-93.405473-8.719606 2.77442 138.192539-59.451857-64.34012 25.23401 2.906535-10.701334 17.439211-7.266338 0 0 5.416725-11.758256-20.742092 4.624033-18.364018-8.58749C737.335142 199.865147 668.503103 77.130091 577.607819 61.804724c-121.942364-20.477862-186.282485 77.551645-201.475737 164.087125-5.020379 29.197468 14.929022 66.321849 25.498241 92.084321-4.359803 2.906535-8.455375 5.945186-12.683063 9.115951-3.963457-3.170766-8.05903-6.209416-12.418832-8.983836-76.098377-49.675329-180.073069-31.179196-232.390704 41.219954-52.053404 72.39915-32.632464 171.221348 43.465914 220.896677 34.878423 22.855936 25.101895 36.463806 64.07589 31.839773 1.585383 4.359803 10.437104 26.423048 12.286717 30.650735-42.012646 17.571327-43.465913 21.402669-58.923396 66.057619-28.801122 83.364715 29.197468 179.808839 116.921985 207.156693 87.724518 27.347854 182.186913-17.967672 210.988035-101.332388 4.491918-13.079409-0.924807 13.079409 0 0 3.699227 0.132115 13.607869 57.338013 9.908643 57.338013-13.475754 0 22.45959 67.378771 36.06746 67.378772 59.716087 47.561486 70.021076 88.649325 147.30849 77.551644 98.690083-14.13633 153.253676-73.852418 175.581151-158.934631 19.68517-74.90934-31.839772-191.434979-102.521425-223.142636 1.585383-3.170766 10.172873 0.660576 11.494026-2.51019 27.612085 5.152494 61.30147 4.095572 89.838362-5.020379z" fill="#96C85C" /><path d="M718.971124 1024c-16.382289 0-32.896694-1.981729-49.146869-6.077301-78.872797-19.68517-136.871386-84.157406-149.818679-162.237512-1.321152 5.54884-2.77442 11.09768-4.624034 16.514405-34.746308 105.69219-148.893873 163.294434-254.586063 128.548126-51.128597-16.778635-92.744897-52.581865-117.0541-100.671811-24.309204-48.089947-28.404776-102.65354-11.494026-153.914252 16.64652-50.468021 52.846095-92.480666 100.275465-116.52564-45.579757 3.302881-90.631053-8.851721-128.283895-34.614192C12.683063 532.13497-10.833449 406.361264 52.053404 314.673289 114.940257 222.985314 240.581848 199.600917 332.269823 262.48777c2.906535 1.981729 5.680955 3.963457 8.455375 6.209416 0.660576-0.528461 1.453268-1.056922 2.113844-1.585383-10.965565-31.707657-13.8721-65.661273-8.455375-98.557967 18.231903-109.655647 122.33871-184.036526 231.994357-165.804624 53.110326 8.851721 99.614889 37.784958 130.926201 81.515102 31.311311 43.730144 43.730144 97.1047 34.878422 150.347141-2.245959 13.343639-5.945186 26.819393-11.229795 40.163032 1.321152 1.056922 2.51019 2.113844 3.567112 3.170766l0.132115-0.264231 1.849613 1.453268c14.929022-10.040758 31.575542-18.231903 49.807445-24.309204 51.524943-17.439211 106.881227-13.739985 155.763865 10.569219 48.750523 24.177089 85.214328 65.925504 102.65354 117.582562 17.439211 51.657058 13.607869 106.881227-10.569219 155.763865-24.177089 48.750523-65.925504 85.214328-117.582562 102.65354-26.290932 8.851721-54.167247 12.286717-81.779332 10.040758 73.456072 45.579757 110.580454 134.625427 89.309901 220.103986-13.079409 52.185519-45.579757 96.312008-91.82009 124.056208-31.575542 18.496133-67.246656 28.272661-103.314116 28.404776z m-214.026685-213.101878l14.796906 0.792691c2.51019 0.132115 5.020379 0.396346 7.530569 0.396346h10.304988l0.264231 10.304988c0 83.2326 56.281091 155.499635 137.003501 175.713266 46.900909 11.758256 95.651432 4.491918 137.135617-20.477861 41.484185-24.96978 70.813767-64.472236 82.439908-111.373146 20.874208-83.628945-20.477862-170.825002-98.293736-207.553038l-9.380182-4.359803 6.473646-13.343639c1.056922-2.245959 2.245959-4.491918 3.170766-6.737877l3.170766-7.662684 8.191144 1.585383c30.78285 5.81307 62.886853 3.699227 92.480667-6.341532 46.372448-15.589598 84.025291-48.486292 105.824305-92.348551 21.799014-43.862259 25.101895-93.669704 9.512297-140.042152s-48.486292-84.025291-92.348551-105.824305c-43.862259-21.799014-93.669704-25.101895-140.042152-9.512297-18.892479 6.341531-35.935345 15.061137-50.600136 25.894586l-6.209416 4.624034-9.115951-7.002108c-1.717498-1.321152-3.567111-2.77442-5.152495-4.227688l-0.132115 0.132116c-0.396346-0.26423-2.245959-1.717498-9.512297-7.398454l-6.341531-4.888263 3.170765-7.266339c6.077301-14.13633 10.437104-28.404776 12.815178-42.541106 7.926914-47.693601-3.170766-95.651432-31.311311-135.021773-28.140546-39.370341-69.888961-65.397043-117.714677-73.323957-98.557967-16.64652-191.96344 50.20379-208.477845 148.761758-5.28461 31.839772-1.717498 64.868582 10.040758 95.255086l2.906535 7.530569-6.605762 4.624033c-4.756149 3.302881-9.380182 6.869992-14.004215 10.569219l-6.473646 5.152494-6.341532-5.284609c-4.227688-3.567111-8.719606-7.002108-13.343639-10.172874-39.898802-27.347854-88.120864-37.520728-135.550234-28.669006-47.561486 8.851721-88.78144 35.671114-116.129294 75.569916-56.677437 82.175678-35.538999 195.134206 46.768794 251.679528 36.199575 24.837665 80.326065 35.538999 124.320439 30.254389l8.191145-1.056922 2.642305 7.794799c1.849613 5.416725 3.567111 10.304989 5.54884 15.061137l3.831342 9.248067-9.248067 3.963457c-47.297255 20.742092-83.49683 60.508779-99.614889 109.127186-15.061137 45.976103-11.36191 94.990856 10.437103 138.192539 21.799014 43.201683 59.055511 75.305686 105.031614 90.366823 94.858741 31.179196 197.380165-20.609977 228.691477-115.468718 4.624033-14.13633 7.398453-28.801122 8.455375-44.787066l0.792692-9.908642z" fill="#070606" /><path d="M596.103953 692.258638c-5.81307 0-11.626141-0.660576-17.439212-2.113844-25.762471-6.473647-45.315527-26.290932-51.657058-51.128597-5.945186 17.967672-18.628249 32.500348-35.538999 41.087839-17.042866 8.58749-36.33169 10.040758-54.431478 4.095573-18.099788-5.945186-32.896694-18.628249-41.484184-35.538999-8.58749-17.042866-10.040758-36.33169-4.095573-54.431478 5.152494-15.853829 15.853829-29.329583 29.858044-38.049189-13.8721-0.26423-27.479969-4.491918-38.973995-12.418832-32.368233-22.19536-40.691493-66.718195-18.496133-99.218544 22.19536-32.368233 66.718195-40.823608 99.218543-18.496133 0.132115 0 0.132115 0.132115 0.264231 0.132115-3.03865-10.304989-3.699227-21.138438-1.981729-31.575542 3.170766-18.760364 13.343639-35.274768 28.933237-46.372448 15.457483-11.09768 34.349962-15.457483 53.110326-12.418832 18.760364 3.170766 35.274768 13.343639 46.372448 28.933237 11.09768 15.457483 15.457483 34.349962 12.418833 53.242441-0.660576 4.359803-1.849613 8.719606-3.567112 13.079408l0.132115 0.132115c5.020379-3.302881 10.569219-5.945186 16.64652-8.059029 18.364018-6.209416 37.784958-4.888264 55.092054 3.699226 17.307096 8.58749 30.122274 23.384397 36.331691 41.6163 6.209416 18.231903 4.756149 37.784958-3.699227 55.092055-8.58749 17.307096-23.384397 30.122274-41.6163 36.33169-7.398453 2.51019-15.193252 3.831342-22.988051 3.831342h-0.264231c22.855936 16.91075 33.953616 46.372448 26.951509 74.777224-4.624033 18.496133-16.118059 34.085731-32.500349 43.862259-11.229795 6.473647-23.780743 9.908643-36.59592 9.908643zM520.534037 615.36757l7.002107 0.26423c0.792691 0 1.453268 0.132115 2.245959 0.132115h5.152495l0.132115 5.152495c0 28.140546 19.024594 52.449749 46.240333 59.319741 15.853829 3.963457 32.236118 1.453268 46.240333-6.869992 14.004215-8.455375 23.912858-21.799014 27.876315-37.652843 7.002108-28.272661-6.869992-57.602244-33.160924-70.021076l-4.756149-2.245959 2.378074-4.624033c0.924807-1.717498 1.321152-2.642305 1.717498-3.567111l1.585383-3.831342 4.095573 0.792691c10.437104 1.981729 21.270553 1.189037 31.179196-2.113844 15.721713-5.28461 28.404776-16.382289 35.671114-31.179196 7.398453-14.796907 8.455375-31.575542 3.170766-47.297255-5.28461-15.721713-16.382289-28.404776-31.179196-35.671114-14.796907-7.398453-31.575542-8.455375-47.297256-3.170766-6.473647 2.245959-12.154602 5.152494-17.042865 8.719606l-3.170766 2.245959-12.286717-9.644412 1.585383-3.699227c2.113844-4.756149 3.567111-9.644412 4.359803-14.400561 2.642305-16.118059-1.056922-32.368233-10.569219-45.579757s-23.648628-22.063245-39.766687-24.705549c-33.160925-5.54884-64.736466 17.042866-70.285306 50.20379-1.717498 10.701334-0.660576 21.799014 3.434996 32.104003l1.453267 3.699226-3.30288 2.245959c-1.585383 1.189037-3.302881 2.378074-4.756149 3.567112l-3.302881 2.510189-3.170766-2.642304c-1.453268-1.189037-3.03865-2.378074-4.491918-3.434997-27.876315-19.024594-65.925504-11.890371-84.950098 15.853829-19.024594 27.7442-11.890371 65.925504 15.853829 84.950098 12.286717 8.32326 27.215739 12.022487 42.012646 10.172873l4.095572-0.528461 1.321152 3.963457c0.660576 1.717498 1.189037 3.434996 1.849614 5.152494l1.849613 4.624034-4.624033 1.981728c-15.985944 6.869992-28.140546 20.345747-33.557271 36.860152-5.152494 15.457483-3.831342 32.104003 3.434996 46.636679 7.398453 14.532676 19.949401 25.366126 35.538999 30.51862 15.457483 5.152494 32.104003 3.831342 46.636679-3.567112 14.532676-7.398453 25.366126-19.949401 30.51862-35.406884 1.585383-4.624033 2.51019-9.776528 2.906535-15.061137l0.132116-4.756148z" fill="#070606" /><path d="M657.669653 557.765326c34.217847-14.796907 52.449749-51.524943 41.6163-83.761061-10.701334-32.236118-46.240333-53.506671-78.21222-42.673221-6.209416 2.113844-16.514405 6.209416-21.534784 9.908642-4.359803-3.434996 2.378074 8.58749-3.434996 3.963458 1.981729-4.491918 3.434996-9.248067 4.227687-14.268446 5.54884-33.160925-16.778635-64.604351-49.675329-70.021076-32.896694-5.54884-63.943775 16.91075-69.3605 50.071675-1.849613 11.229795-0.396346 22.063245 3.302881 31.971887-1.585383 1.056922-3.03865 2.245959-4.624033 3.434997-1.453268-1.189037-2.906535-2.378074-4.491918-3.434997-27.479969-19.024594-65.000697-11.890371-83.893176 15.853829-18.760364 27.7442-11.758256 65.529158 15.589598 84.553752 12.683063 8.719606 27.347854 11.890371 41.484184 10.172873 0.660576 1.585383 1.189037 3.302881 1.849614 5.02038-15.193252 6.605762-27.612085 19.553055-33.160925 36.728036-10.437104 31.839772 6.737877 66.321849 38.445534 76.758953 31.707657 10.437104 50.864367-9.776528 72.795496-40.030917 3.03865-4.227688 3.963457-3.302881 4.227688-8.32326h1.321152l4.624033 21.138438c12.550948 29.858044 20.742092 32.236118 44.522836 41.087839 31.311311 11.494026 66.321849-20.081516 74.380878-52.71398 7.134223-28.669007-7.266338-57.602244-32.764579-69.756846 0.528461-1.189037 1.189037-2.378074 1.717499-3.567111 10.172873 1.981729 21.138438 2.245959 31.04708-2.113844z" fill="#EEBF2F" /><path d="M961.006239 306.085798c0.924807 10.701334 1.585383 21.402669 1.717498 32.368233 1.849613 109.655647-34.614192 210.988035-96.972584 291.446215 92.612782-4.888264 165.540393-85.346444 163.822895-182.847489-0.792691-57.734359-27.612085-108.598725-68.567809-140.966959zM638.645059 983.969083c31.047081 15.457483 66.718195 22.19536 103.710462 17.439211 98.822198-12.947293 168.579043-103.446231 155.763865-202.400544-2.77442-20.874208-9.115951-40.427263-18.099788-58.26282-46.108218 107.541804-131.851007 195.530552-241.374539 243.224153z" fill="#70A02F" /></svg>