<?xml version="1.0" standalone="no"?><!DOCTYPE svg PUBLIC "-//W3C//DTD SVG 1.1//EN" "http://www.w3.org/Graphics/SVG/1.1/DTD/svg11.dtd"><svg class="icon" width="200px" height="200.00px" viewBox="0 0 1024 1024" version="1.1" xmlns="http://www.w3.org/2000/svg"><path d="M826.838342 610.21594c-12.406224-6.324742-27.4883-4.743556-38.191709 4.135408-0.851408 0.608148-81.005345 65.923269-177.822545 119.318684-48.651859 26.880152-79.545789 59.841786-99.249792 91.222235-19.704003-31.258819-50.476304-64.342083-99.249792-91.222235-96.69557-53.273785-175.025062-118.345647-175.87647-119.075425-10.825039-9.000594-25.785485-10.703409-38.313339-4.378667-12.527854 6.324742-20.068892 19.460744-19.217484 33.448153 6.81126 111.169498 84.775864 321.467158 331.805678 321.467158 0.243259 0 0.486519-0.12163 0.729778-0.12163 0.243259 0 0.486519 0.12163 0.729777 0.12163 248.36774 0 326.818862-210.29766 333.508493-321.467158 1.094667-13.987409-6.446371-27.123411-18.852595-33.448153z" fill="#231F20" /><path d="M512.304074 894.829315s0-102.047274 115.426535-165.53795c101.074237-55.706378 183.052619-122.845944 183.052619-122.845944s-17.514669 288.383894-298.479154 288.383894zM510.844518 894.829315s0-102.047274-115.426535-165.53795c-101.074237-55.706378-181.471434-122.845944-181.471434-122.845944s17.636299 288.383894 296.897969 288.383894z" fill="#76C2AF" /><path d="M407.094429 378.146573m-140.482242 0a140.482243 140.482243 0 1 0 280.964485 0 140.482243 140.482243 0 1 0-280.964485 0Z" fill="#231F20" /><path d="M617.756978 378.146573m-140.482242 0a140.482243 140.482243 0 1 0 280.964485 0 140.482243 140.482243 0 1 0-280.964485 0Z" fill="#231F20" /><path d="M512.425704 307.966267m-140.482243 0a140.482243 140.482243 0 1 0 280.964485 0 140.482243 140.482243 0 1 0-280.964485 0Z" fill="#231F20" /><path d="M512.425704 483.477848m-140.482243 0a140.482243 140.482243 0 1 0 280.964485 0 140.482243 140.482243 0 1 0-280.964485 0Z" fill="#231F20" /><path d="M407.094429 342.995605m-140.482242 0a140.482243 140.482243 0 1 0 280.964485 0 140.482243 140.482243 0 1 0-280.964485 0Z" fill="#C75C5C" /><path d="M617.756978 342.995605m-140.482242 0a140.482243 140.482243 0 1 0 280.964485 0 140.482243 140.482243 0 1 0-280.964485 0Z" fill="#C75C5C" /><path d="M512.425704 237.78596m-140.482243 0a140.482243 140.482243 0 1 0 280.964485 0 140.482243 140.482243 0 1 0-280.964485 0Z" fill="#C75C5C" /><path d="M512.425704 448.32688m-140.482243 0a140.482243 140.482243 0 1 0 280.964485 0 140.482243 140.482243 0 1 0-280.964485 0Z" fill="#C75C5C" /><path d="M512.425704 378.146573m-87.816606 0a87.816605 87.816605 0 1 0 175.633211 0 87.816605 87.816605 0 1 0-175.633211 0Z" fill="#231F20" /><path d="M512.425704 342.995605m-87.816606 0a87.816605 87.816605 0 1 0 175.633211 0 87.816605 87.816605 0 1 0-175.633211 0Z" fill="#F5CF87" /></svg>