<?xml version="1.0" standalone="no"?><!DOCTYPE svg PUBLIC "-//W3C//DTD SVG 1.1//EN" "http://www.w3.org/Graphics/SVG/1.1/DTD/svg11.dtd"><svg class="icon" width="200px" height="200.00px" viewBox="0 0 1024 1024" version="1.1" xmlns="http://www.w3.org/2000/svg"><path d="M785.408 189.44c25.6 0 47.104 20.992 47.104 47.104v550.912c0 25.6-20.992 47.104-47.104 47.104-25.6 0-47.104-20.992-47.104-47.104V236.544c0.512-26.112 21.504-47.104 47.104-47.104z m-127.488 289.792L254.976 196.608c-12.288-8.704-28.672-9.728-41.984-2.56-13.312 7.168-21.504 20.48-21.504 35.84v564.736c0 14.848 8.192 28.672 21.504 35.84 13.312 6.656 29.696 5.632 41.984-2.56l403.456-282.112c10.752-7.68 16.896-19.968 16.896-33.28 0-13.824-6.144-26.112-17.408-33.28z" fill="#333333" /></svg>