<?xml version="1.0" standalone="no"?><!DOCTYPE svg PUBLIC "-//W3C//DTD SVG 1.1//EN" "http://www.w3.org/Graphics/SVG/1.1/DTD/svg11.dtd"><svg class="icon" width="200px" height="200.00px" viewBox="0 0 1024 1024" version="1.1" xmlns="http://www.w3.org/2000/svg"><path d="M943.275912 223.486131c-0.747445-11.959124-11.211679-20.928467-23.918248-21.675912C729.506569 192.840876 580.017518 69.512409 532.181022 24.665693c-9.716788-8.969343-23.918248-8.221898-33.635037 0.747446C448.467153 72.50219 292.99854 204.052555 105.389781 202.557664c-12.706569 0-24.665693 8.969343-25.413139 21.675913-19.433577 272.817518 202.557664 710.820438 425.296351 779.585401 5.232117 1.494891 11.211679 1.494891 16.443795-0.747445 287.018978-102.4 439.49781-550.119708 421.559124-779.585402z m-137.529927 185.366424L488.081752 726.516788c-5.979562 5.979562-13.454015 8.969343-20.928467 8.969343s-15.69635-2.989781-20.928467-8.969343L278.79708 559.089051c-11.959124-11.959124-11.959124-30.645255 0-42.604379 11.959124-11.959124 30.645255-11.959124 42.60438 0l146.49927 146.49927L764.636496 366.248175c11.959124-11.959124 30.645255-11.959124 42.60438 0 10.464234 11.959124 10.464234 30.645255-1.494891 42.60438z" fill="#FF8000" /></svg>