<?xml version="1.0" standalone="no"?><!DOCTYPE svg PUBLIC "-//W3C//DTD SVG 1.1//EN" "http://www.w3.org/Graphics/SVG/1.1/DTD/svg11.dtd"><svg class="icon" width="200px" height="200.00px" viewBox="0 0 1024 1024" version="1.1" xmlns="http://www.w3.org/2000/svg"><path d="M628.905386 769.860427 628.905386 482.261019l169.381759-27.464779C771.308637 311.811584 645.822916 203.633728 494.993179 203.633728c-170.51599 0-308.738475 138.222485-308.738475 308.738875 0 170.516989 138.222485 308.738875 308.738475 308.738875 16.540186 0 32.756191-1.34209 48.589456-3.839397 12.391598-20.573051 34.625524-37.084856 62.858182-44.145869C613.897561 771.276467 621.429455 770.182208 628.905386 769.860427zM551.718919 228.830645l-33.079572 144.922942-33.078373 0-23.62798-144.922942C496.589896 211.497397 551.718919 228.830645 551.718919 228.830645zM494.993179 626.995689c-63.300482 0-114.622086-51.317007-114.622086-114.622886 0-63.30348 51.321604-114.622486 114.622086-114.622486 63.306478 0 114.622486 51.319006 114.622486 114.622486C609.615665 575.678482 558.299457 626.995689 494.993179 626.995689zM494.993179 424.978057c-48.20112 0-87.394147 39.192827-87.394147 87.394546 0 48.20112 39.192827 87.395546 87.394147 87.395546 48.201719 0 87.395946-39.194226 87.395946-87.395546C582.389124 464.170884 543.194698 424.978057 494.993179 424.978057zM494.993179 574.79708c-34.421063 0-62.423477-28.002015-62.423477-62.424476 0-34.421662 28.011408-62.424076 62.423477-62.424076 34.432055 0 62.416082 28.002414 62.416082 62.424076C557.409061 546.795265 529.425034 574.79708 494.993179 574.79708zM534.528574 870.531771c1.499983 8.297374 4.789753 16.008146 9.524542 22.939447-16.073102 2.058604-32.429013 3.239803-49.050144 3.239803-211.934708 0-384.347812-172.417701-384.347812-384.338419 0-211.922716 172.413104-384.338419 384.338019-384.338419 188.118456 0 345.001689 135.905456 377.892189 314.664258l-37.310503 6.059292c-29.969681-160.790984-171.236502-282.919381-340.581686-282.919381-191.084445 0-346.53365 155.451604-346.53365 346.53425 0 191.080048 155.449205 346.53425 346.53365 346.53425 12.796724 0 25.414169-0.748493 37.859731-2.104573C532.968631 861.361189 533.461497 865.948079 534.528574 870.531771zM912.096583 463.425989l0 333.227272c0 27.59629-20.573051 49.609165-52.658098 57.716668-35.234911 8.736077-69.250848-6.021917-75.997274-33.022611-6.760416-27.057655 16.31294-56.065787 51.53386-64.879811 15.920206-3.931335 31.587384-3.128879 44.698494 1.494986L879.673565 557.20001l-180.148459 32.927675-0.834434 249.757065-0.036975 0c-0.156894 23.646767-21.482435 46.868223-52.156438 54.45388-34.814196 8.759061-71.280472-7.807706-75.193819-32.597899-6.691463-26.747865 16.124068-55.470191 51.00222-64.201272 15.699356-3.904353 31.039755-3.119885 43.933013 1.402049L666.238674 503.300354 912.096583 463.425989z" fill="#272636" /></svg>