<?xml version="1.0" standalone="no"?><!DOCTYPE svg PUBLIC "-//W3C//DTD SVG 1.1//EN" "http://www.w3.org/Graphics/SVG/1.1/DTD/svg11.dtd"><svg class="icon" width="200px" height="200.00px" viewBox="0 0 1024 1024" version="1.1" xmlns="http://www.w3.org/2000/svg"><path d="M854.7 853H281.3C223.7 853 177 806.3 177 748.7V393.9h778.6v358.3c-0.1 55.4-45.4 100.8-100.9 100.8z" fill="#FDB913" /><path d="M848.2 165.2h-676c-58.9 0-106.9 48-106.9 106.9v447.3c0 58.9 48 106.9 106.9 106.9h676c58.9 0 106.9-48 106.9-106.9V272.1c0-59.3-47.6-106.9-106.9-106.9z m89.9 542.9c0 56.3-46.3 101.7-103 101.7H185.3c-56.7 0-102.6-45.4-102.6-101.7V283c0-56.3 45.8-101.7 102.6-101.7h649.8c56.7 0 103 45.4 103 101.7v425.1z" fill="#222222" /><path d="M835.1 809.8H185.3c-56.7 0-102.6-45.4-102.6-101.7V283c0-56.3 45.8-101.7 102.6-101.7h649.8c56.7 0 103 45.4 103 101.7v425.1c0 56.3-46.3 101.7-103 101.7z" fill="#FDB913" opacity=".2" /><path d="M521.3 510c-2.6 3.9-8.3 5.2-12.2 2.6L86.6 233.7c-3.9-2.6-5.2-8.3-2.6-12.2 2.6-3.9 8.3-5.2 12.2-2.6l422.5 278.9c3.9 3 5.2 8.2 2.6 12.2z" fill="#222222" /><path d="M499.5 510c2.6 3.9 8.3 5.2 12.2 2.6l422.5-278.9c3.9-2.6 5.2-8.3 2.6-12.2-2.6-3.9-8.3-5.2-12.2-2.6L502.1 497.8c-4.4 3-5.2 8.2-2.6 12.2z" fill="#222222" /></svg>