<?xml version="1.0" standalone="no"?><!DOCTYPE svg PUBLIC "-//W3C//DTD SVG 1.1//EN" "http://www.w3.org/Graphics/SVG/1.1/DTD/svg11.dtd"><svg class="icon" width="200px" height="200.00px" viewBox="0 0 1024 1024" version="1.1" xmlns="http://www.w3.org/2000/svg"><path d="M805.71392 908.77952H214.84544l0.39936-15.74912c4.25984-169.6256 77.35296-319.70304 186.2144-382.32064-108.87168-62.6176-181.9648-212.69504-186.2144-382.32064L214.84544 112.64h590.86848l-0.38912 15.74912c-4.25984 169.61536-77.35296 319.6928-186.2144 382.33088 108.8512 62.6176 181.94432 212.6848 186.2144 382.3104l0.38912 15.74912z m-559.1552-30.72h527.44192c-7.87456-152.576-73.74848-285.22496-170.20928-340.72576l-46.29504-26.624 46.29504-26.624C700.2624 428.58496 766.13632 295.92576 774.00064 143.36H246.55872c7.86432 152.576 73.73824 285.22496 170.20928 340.72576l46.2848 26.624-46.2848 26.624c-96.47104 55.5008-162.34496 188.14976-170.20928 340.72576z" fill="#979797" /><path d="M344.90368 296.64256c0 90.09152 62.91456 164.59776 144.66048 176.72192 7.66976 1.13664 15.5136 94.18752 23.48032 94.18752 6.15424 0 12.2368-92.81536 18.2272-93.50144 84.29568-9.64608 149.9136-85.39136 149.9136-177.408h-336.2816zM281.91744 854.23104c0-100.22912 102.2464-47.14496 228.36224-47.14496s228.36224-53.08416 228.36224 47.14496" fill="#979797" /></svg>