<?xml version="1.0" standalone="no"?><!DOCTYPE svg PUBLIC "-//W3C//DTD SVG 1.1//EN" "http://www.w3.org/Graphics/SVG/1.1/DTD/svg11.dtd"><svg class="icon" width="200px" height="191.58px" viewBox="0 0 1069 1024" version="1.1" xmlns="http://www.w3.org/2000/svg"><path d="M159.300267 450.56A425.540267 425.540267 0 1 0 584.840533 25.019733 425.540267 425.540267 0 0 0 159.300267 450.56z" fill="#FFE500" /><path d="M584.840533 25.053867A425.540267 425.540267 0 1 0 1010.346667 450.56 426.325333 426.325333 0 0 0 584.840533 25.053867z m0 787.3536a386.833067 386.833067 0 1 1 386.833067-386.8672A386.525867 386.525867 0 0 1 584.840533 812.373333z" fill="#EBCB00" /><path d="M457.386667 111.5136c0 17.578667 57.0368 31.8464 127.419733 31.8464s127.419733-14.267733 127.419733-31.8464-57.070933-31.8464-127.419733-31.8464-127.419733 14.2336-127.419733 31.8464z" fill="#FFF48C" /><path d="M170.666667 857.873067A51.6096 51.6096 0 0 1 209.339733 819.2l77.380267-18.193067c2.286933 0 4.539733-2.286933 4.539733-6.826666 0-2.286933-2.286933-4.539733-4.539733-6.826667l-77.380267-18.193067A51.6096 51.6096 0 0 1 170.666667 730.453333l-18.193067-77.380266c0-2.286933-2.286933-4.539733-6.826667-4.539734s-4.539733 2.286933-6.826666 4.539734L120.593067 730.453333A51.6096 51.6096 0 0 1 81.92 769.1264l-77.380267 18.193067c-2.286933 0-4.539733 2.286933-4.539733 6.826666 0 2.286933 2.286933 4.539733 4.539733 6.826667L81.92 819.2a51.6096 51.6096 0 0 1 38.673067 38.673067l18.2272 77.380266c0 2.286933 2.286933 4.539733 6.826666 4.539734s4.539733-2.286933 6.826667-4.539734z m835.140266-744.106667l59.153067-20.48a4.573867 4.573867 0 1 0 0-9.1136L1014.8864 68.266667a20.48 20.48 0 0 1-13.653333-13.653334L985.326933 4.539733a4.573867 4.573867 0 0 0-9.1136 0L960.273067 54.613333a20.48 20.48 0 0 1-13.653334 13.653334l-50.0736 15.940266a4.573867 4.573867 0 1 0 0 9.1136l50.0736 15.940267a20.48 20.48 0 0 1 13.653334 13.653333l15.940266 50.0736a4.573867 4.573867 0 1 0 9.1136 0l20.48-59.153066z" fill="#FFFFFF" /><path d="M245.76 989.866667c0 18.8416 151.790933 34.133333 339.0464 34.133333s339.0464-15.291733 339.0464-34.133333-151.790933-34.133333-339.0464-34.133334-339.0464 15.291733-339.0464 34.133334z" fill="#45413C" opacity=".15" /><path d="M787.3536 557.533867c0 17.578667 23.415467 31.8464 52.3264 31.8464s52.3264-14.267733 52.3264-31.8464-23.4496-31.8464-52.3264-31.8464-52.3264 14.2336-52.3264 31.8464z" fill="#FFAA54" /><path d="M277.6064 557.533867c0 17.578667 23.415467 31.8464 52.3264 31.8464s52.3264-14.267733 52.3264-31.8464-23.415467-31.8464-52.3264-31.8464-52.3264 14.2336-52.3264 31.8464z" fill="#FFAA54" /><path d="M889.7536 525.653333H764.586667a122.197333 122.197333 0 0 1-120.593067-102.4l-15.940267-102.4a60.996267 60.996267 0 0 1 61.44-70.5536h273.066667a61.44 61.44 0 0 1 61.44 68.266667l-11.3664 97.860267a126.7712 126.7712 0 0 1-122.88 109.226666z" fill="#656769" /><path d="M643.959467 423.253333a126.737067 126.737067 0 0 0 52.3264 81.92l254.8736-254.8736h-263.953067a62.225067 62.225067 0 0 0-61.44 70.5536z" fill="#87898C" /><path d="M279.893333 525.653333h122.88a122.197333 122.197333 0 0 0 120.593067-102.4l15.940267-102.4A60.996267 60.996267 0 0 0 477.866667 250.299733H204.8a61.44 61.44 0 0 0-61.44 68.266667l11.3664 97.860267A130.9696 130.9696 0 0 0 279.893333 525.653333z" fill="#656769" /><path d="M159.300267 416.426667A125.883733 125.883733 0 0 0 225.28 512l261.700267-261.700267H211.626667a61.44 61.44 0 0 0-61.44 68.266667l9.1136 97.860267z" fill="#87898C" /></svg>